<svg width="20" height="21" viewBox="0 0 20 21" fill="none" xmlns="http://www.w3.org/2000/svg">
<path d="M18.458 1.37638C18.1136 1.18476 17.7349 1.0629 17.3434 1.01777C16.9519 0.972644 16.5553 1.00513 16.1764 1.11338C15.7975 1.22162 15.4436 1.4035 15.135 1.64862C14.8264 1.89373 14.5692 2.19727 14.378 2.54188L8.8085 12.5649L5.621 9.37738C5.34426 9.09085 5.01323 8.8623 4.64721 8.70508C4.2812 8.54785 3.88754 8.46509 3.4892 8.46163C3.09087 8.45817 2.69583 8.53407 2.32714 8.68492C1.95845 8.83576 1.62349 9.05852 1.34181 9.3402C1.06014 9.62187 0.837377 9.95683 0.686534 10.3255C0.535692 10.6942 0.459787 11.0892 0.463248 11.4876C0.466709 11.8859 0.549468 12.2796 0.706695 12.6456C0.863922 13.0116 1.09247 13.3426 1.379 13.6194L7.379 19.6194C7.946 20.1879 8.711 20.4999 9.5 20.4999L9.9155 20.4699C10.3753 20.4056 10.8139 20.2354 11.1968 19.9727C11.5797 19.7101 11.8964 19.3622 12.122 18.9564L19.622 5.45638C19.8135 5.11206 19.9353 4.73339 19.9804 4.342C20.0255 3.95061 19.9931 3.55416 19.885 3.1753C19.777 2.79643 19.5953 2.44256 19.3504 2.1339C19.1056 1.82524 18.8023 1.56784 18.458 1.37638Z" fill="#FFAA06"/>
</svg>
