<svg width="170" height="57" viewBox="0 0 170 57" fill="none" xmlns="http://www.w3.org/2000/svg">
<path d="M5.239 40.615C4.24233 40.615 3.458 40.9487 2.886 41.616C2.314 42.2833 2.028 43.1977 2.028 44.359C2.028 45.5117 2.29233 46.426 2.821 47.102C3.35833 47.7693 4.16 48.103 5.226 48.103C5.63333 48.103 6.019 48.0683 6.383 47.999C6.747 47.9297 7.10233 47.843 7.449 47.739V48.753C7.10233 48.883 6.74267 48.9783 6.37 49.039C6.006 49.0997 5.56833 49.13 5.057 49.13C4.11233 49.13 3.32367 48.935 2.691 48.545C2.05833 48.155 1.58167 47.6003 1.261 46.881C0.949 46.1617 0.793 45.3167 0.793 44.346C0.793 43.41 0.962 42.5867 1.3 41.876C1.64667 41.1567 2.15367 40.5977 2.821 40.199C3.48833 39.7917 4.29867 39.588 5.252 39.588C6.23133 39.588 7.085 39.77 7.813 40.134L7.345 41.122C7.059 40.992 6.73833 40.875 6.383 40.771C6.03633 40.667 5.655 40.615 5.239 40.615ZM12.0099 41.902C12.6079 41.902 13.1192 42.032 13.5439 42.292C13.9772 42.552 14.3065 42.9203 14.5319 43.397C14.7659 43.865 14.8829 44.4153 14.8829 45.048V45.737H10.1119C10.1292 46.5257 10.3285 47.128 10.7099 47.544C11.0999 47.9513 11.6415 48.155 12.3349 48.155C12.7769 48.155 13.1669 48.116 13.5049 48.038C13.8515 47.9513 14.2069 47.83 14.5709 47.674V48.675C14.2155 48.831 13.8645 48.9437 13.5179 49.013C13.1712 49.091 12.7595 49.13 12.2829 49.13C11.6242 49.13 11.0392 48.9957 10.5279 48.727C10.0252 48.4583 9.63087 48.0597 9.34487 47.531C9.06753 46.9937 8.92887 46.3393 8.92887 45.568C8.92887 44.8053 9.05453 44.151 9.30587 43.605C9.56587 43.059 9.92553 42.6387 10.3849 42.344C10.8529 42.0493 11.3945 41.902 12.0099 41.902ZM11.9969 42.838C11.4509 42.838 11.0175 43.0157 10.6969 43.371C10.3849 43.7177 10.1985 44.203 10.1379 44.827H13.6869C13.6782 44.2377 13.5395 43.761 13.2709 43.397C13.0022 43.0243 12.5775 42.838 11.9969 42.838ZM19.9718 41.902C20.8298 41.902 21.5188 42.201 22.0388 42.799C22.5674 43.397 22.8318 44.2983 22.8318 45.503C22.8318 46.6903 22.5674 47.5917 22.0388 48.207C21.5188 48.8223 20.8254 49.13 19.9588 49.13C19.4214 49.13 18.9751 49.0303 18.6198 48.831C18.2731 48.623 18.0001 48.3847 17.8008 48.116H17.7228C17.7401 48.2633 17.7574 48.4497 17.7748 48.675C17.7921 48.9003 17.8008 49.0953 17.8008 49.26V52.12H16.6568V42.032H17.5928L17.7488 42.981H17.8008C18.0088 42.6777 18.2818 42.422 18.6198 42.214C18.9578 42.006 19.4084 41.902 19.9718 41.902ZM19.7638 42.864C19.0531 42.864 18.5504 43.0633 18.2558 43.462C17.9698 43.8607 17.8181 44.4673 17.8008 45.282V45.503C17.8008 46.361 17.9394 47.024 18.2168 47.492C18.5028 47.9513 19.0271 48.181 19.7898 48.181C20.2144 48.181 20.5611 48.064 20.8298 47.83C21.1071 47.596 21.3108 47.2797 21.4408 46.881C21.5794 46.4737 21.6488 46.01 21.6488 45.49C21.6488 44.6927 21.4928 44.0557 21.1808 43.579C20.8774 43.1023 20.4051 42.864 19.7638 42.864ZM30.2578 43.787C30.2578 44.2203 30.1278 44.5583 29.8678 44.801C29.6078 45.0437 29.2741 45.2083 28.8668 45.295V45.347C29.3001 45.4077 29.6771 45.5637 29.9978 45.815C30.3185 46.0577 30.4788 46.439 30.4788 46.959C30.4788 47.5483 30.2578 48.038 29.8158 48.428C29.3825 48.8093 28.6631 49 27.6578 49H24.6548V42.032H27.6448C28.1388 42.032 28.5808 42.0883 28.9708 42.201C29.3695 42.305 29.6815 42.487 29.9068 42.747C30.1408 42.9983 30.2578 43.345 30.2578 43.787ZM29.1008 43.93C29.1008 43.6007 28.9795 43.3623 28.7368 43.215C28.5028 43.059 28.1171 42.981 27.5798 42.981H25.7988V44.892H27.3718C28.5245 44.892 29.1008 44.5713 29.1008 43.93ZM29.2958 46.959C29.2958 46.5603 29.1441 46.2743 28.8408 46.101C28.5375 45.9277 28.0911 45.841 27.5018 45.841H25.7988V48.077H27.5278C28.0998 48.077 28.5375 47.9947 28.8408 47.83C29.1441 47.6567 29.2958 47.3663 29.2958 46.959ZM33.224 46.283C33.224 46.387 33.2197 46.543 33.211 46.751C33.2024 46.959 33.1894 47.167 33.172 47.375C33.1634 47.583 33.1547 47.7477 33.146 47.869L36.877 42.032H38.281V49H37.215V44.892C37.215 44.7533 37.215 44.5713 37.215 44.346C37.2237 44.1207 37.2324 43.8997 37.241 43.683C37.2497 43.4577 37.2584 43.2887 37.267 43.176L33.562 49H32.145V42.032H33.224V46.283ZM43.2936 49.13C42.6782 49.13 42.1279 49.0043 41.6426 48.753C41.1659 48.5017 40.7889 48.1117 40.5116 47.583C40.2429 47.0543 40.1086 46.3783 40.1086 45.555C40.1086 44.697 40.2516 43.9993 40.5376 43.462C40.8236 42.9247 41.2092 42.5303 41.6946 42.279C42.1886 42.0277 42.7476 41.902 43.3716 41.902C43.7269 41.902 44.0692 41.941 44.3986 42.019C44.7279 42.0883 44.9966 42.175 45.2046 42.279L44.8536 43.228C44.6456 43.15 44.4029 43.0763 44.1256 43.007C43.8482 42.9377 43.5882 42.903 43.3456 42.903C41.9762 42.903 41.2916 43.7827 41.2916 45.542C41.2916 46.3827 41.4562 47.0283 41.7856 47.479C42.1236 47.921 42.6219 48.142 43.2806 48.142C43.6619 48.142 43.9956 48.103 44.2816 48.025C44.5762 47.947 44.8449 47.8517 45.0876 47.739V48.753C44.8536 48.8743 44.5936 48.9653 44.3076 49.026C44.0302 49.0953 43.6922 49.13 43.2936 49.13ZM52.9891 41.915C53.8385 41.915 54.4668 42.1013 54.8741 42.474C55.2815 42.8467 55.4851 43.4403 55.4851 44.255V49H54.6531L54.4321 48.012H54.3801C54.0768 48.3933 53.7561 48.675 53.4181 48.857C53.0888 49.039 52.6295 49.13 52.0401 49.13C51.4075 49.13 50.8831 48.9653 50.4671 48.636C50.0511 48.298 49.8431 47.7737 49.8431 47.063C49.8431 46.3697 50.1161 45.8367 50.6621 45.464C51.2081 45.0827 52.0488 44.8747 53.1841 44.84L54.3671 44.801V44.385C54.3671 43.8043 54.2415 43.4013 53.9901 43.176C53.7388 42.9507 53.3835 42.838 52.9241 42.838C52.5601 42.838 52.2135 42.8943 51.8841 43.007C51.5548 43.111 51.2471 43.2323 50.9611 43.371L50.6101 42.513C50.9135 42.3483 51.2731 42.2097 51.6891 42.097C52.1051 41.9757 52.5385 41.915 52.9891 41.915ZM53.3271 45.633C52.4605 45.6677 51.8581 45.8063 51.5201 46.049C51.1908 46.2917 51.0261 46.634 51.0261 47.076C51.0261 47.466 51.1431 47.752 51.3771 47.934C51.6198 48.116 51.9275 48.207 52.3001 48.207C52.8895 48.207 53.3791 48.0467 53.7691 47.726C54.1591 47.3967 54.3541 46.894 54.3541 46.218V45.594L53.3271 45.633ZM61.7582 42.032H63.0062L60.0292 45.386L63.2532 49H61.9272L58.7812 45.464V49H57.6372V42.032H58.7812V45.412L61.7582 42.032ZM69.3281 42.994H67.0531V49H65.9221V42.994H63.6731V42.032H69.3281V42.994ZM71.7797 46.283C71.7797 46.387 71.7754 46.543 71.7667 46.751C71.758 46.959 71.745 47.167 71.7277 47.375C71.719 47.583 71.7104 47.7477 71.7017 47.869L75.4327 42.032H76.8367V49H75.7707V44.892C75.7707 44.7533 75.7707 44.5713 75.7707 44.346C75.7794 44.1207 75.788 43.8997 75.7967 43.683C75.8054 43.4577 75.814 43.2887 75.8227 43.176L72.1177 49H70.7007V42.032H71.7797V46.283ZM84.6572 43.787C84.6572 44.2203 84.5272 44.5583 84.2672 44.801C84.0072 45.0437 83.6736 45.2083 83.2662 45.295V45.347C83.6996 45.4077 84.0766 45.5637 84.3972 45.815C84.7179 46.0577 84.8782 46.439 84.8782 46.959C84.8782 47.5483 84.6572 48.038 84.2152 48.428C83.7819 48.8093 83.0626 49 82.0572 49H79.0542V42.032H82.0442C82.5382 42.032 82.9802 42.0883 83.3702 42.201C83.7689 42.305 84.0809 42.487 84.3062 42.747C84.5402 42.9983 84.6572 43.345 84.6572 43.787ZM83.5002 43.93C83.5002 43.6007 83.3789 43.3623 83.1362 43.215C82.9022 43.059 82.5166 42.981 81.9792 42.981H80.1982V44.892H81.7712C82.9239 44.892 83.5002 44.5713 83.5002 43.93ZM83.6952 46.959C83.6952 46.5603 83.5436 46.2743 83.2402 46.101C82.9369 45.9277 82.4906 45.841 81.9012 45.841H80.1982V48.077H81.9272C82.4992 48.077 82.9369 47.9947 83.2402 47.83C83.5436 47.6567 83.6952 47.3663 83.6952 46.959ZM87.6885 42.032V44.931H91.4715V42.032H92.6155V49H91.4715V45.893H87.6885V49H86.5445V42.032H87.6885ZM100.88 45.503C100.88 46.6557 100.585 47.5483 99.9958 48.181C99.4151 48.8137 98.6265 49.13 97.6298 49.13C97.0145 49.13 96.4641 48.9913 95.9788 48.714C95.5021 48.428 95.1251 48.0163 94.8478 47.479C94.5705 46.933 94.4318 46.2743 94.4318 45.503C94.4318 44.3503 94.7221 43.462 95.3028 42.838C95.8835 42.214 96.6721 41.902 97.6688 41.902C98.3015 41.902 98.8561 42.045 99.3328 42.331C99.8181 42.6083 100.195 43.0157 100.464 43.553C100.741 44.0817 100.88 44.7317 100.88 45.503ZM95.6148 45.503C95.6148 46.3263 95.7751 46.9807 96.0958 47.466C96.4251 47.9427 96.9451 48.181 97.6558 48.181C98.3578 48.181 98.8735 47.9427 99.2028 47.466C99.5321 46.9807 99.6968 46.3263 99.6968 45.503C99.6968 44.6797 99.5321 44.034 99.2028 43.566C98.8735 43.098 98.3535 42.864 97.6428 42.864C96.9321 42.864 96.4165 43.098 96.0958 43.566C95.7751 44.034 95.6148 44.6797 95.6148 45.503ZM106.944 42.032V42.994H103.837V49H102.693V42.032H106.944ZM114.248 45.503C114.248 46.6557 113.953 47.5483 113.364 48.181C112.783 48.8137 111.995 49.13 110.998 49.13C110.383 49.13 109.832 48.9913 109.347 48.714C108.87 48.428 108.493 48.0163 108.216 47.479C107.939 46.933 107.8 46.2743 107.8 45.503C107.8 44.3503 108.09 43.462 108.671 42.838C109.252 42.214 110.04 41.902 111.037 41.902C111.67 41.902 112.224 42.045 112.701 42.331C113.186 42.6083 113.563 43.0157 113.832 43.553C114.109 44.0817 114.248 44.7317 114.248 45.503ZM108.983 45.503C108.983 46.3263 109.143 46.9807 109.464 47.466C109.793 47.9427 110.313 48.181 111.024 48.181C111.726 48.181 112.242 47.9427 112.571 47.466C112.9 46.9807 113.065 46.3263 113.065 45.503C113.065 44.6797 112.9 44.034 112.571 43.566C112.242 43.098 111.722 42.864 111.011 42.864C110.3 42.864 109.785 43.098 109.464 43.566C109.143 44.034 108.983 44.6797 108.983 45.503ZM125.725 45.503C125.725 46.6557 125.43 47.5483 124.841 48.181C124.26 48.8137 123.471 49.13 122.475 49.13C121.859 49.13 121.309 48.9913 120.824 48.714C120.347 48.428 119.97 48.0163 119.693 47.479C119.415 46.933 119.277 46.2743 119.277 45.503C119.277 44.3503 119.567 43.462 120.148 42.838C120.728 42.214 121.517 41.902 122.514 41.902C123.146 41.902 123.701 42.045 124.178 42.331C124.663 42.6083 125.04 43.0157 125.309 43.553C125.586 44.0817 125.725 44.7317 125.725 45.503ZM120.46 45.503C120.46 46.3263 120.62 46.9807 120.941 47.466C121.27 47.9427 121.79 48.181 122.501 48.181C123.203 48.181 123.718 47.9427 124.048 47.466C124.377 46.9807 124.542 46.3263 124.542 45.503C124.542 44.6797 124.377 44.034 124.048 43.566C123.718 43.098 123.198 42.864 122.488 42.864C121.777 42.864 121.261 43.098 120.941 43.566C120.62 44.034 120.46 44.6797 120.46 45.503ZM132.221 42.994H129.946V49H128.815V42.994H126.566V42.032H132.221V42.994ZM138.374 42.032V48.038H139.388V51.418H138.283V49H133.434V51.418H132.342V48.038H132.901C133.499 47.2147 133.945 46.2787 134.24 45.23C134.543 44.1727 134.699 43.1067 134.708 42.032H138.374ZM135.722 42.929C135.687 43.5183 135.596 44.1293 135.449 44.762C135.301 45.386 135.111 45.984 134.877 46.556C134.651 47.128 134.387 47.622 134.084 48.038H137.269V42.929H135.722ZM140.753 49V42.032H141.897V44.892H143.704C144.606 44.892 145.273 45.0567 145.706 45.386C146.14 45.7153 146.356 46.2093 146.356 46.868C146.356 47.518 146.144 48.038 145.719 48.428C145.295 48.8093 144.606 49 143.652 49H140.753ZM147.513 49V42.032H148.657V49H147.513ZM143.548 48.077C144.042 48.077 144.445 47.9947 144.757 47.83C145.069 47.6567 145.225 47.3577 145.225 46.933C145.225 46.5083 145.082 46.2223 144.796 46.075C144.51 45.919 144.099 45.841 143.561 45.841H141.897V48.077H143.548ZM152.523 45.438L150.118 42.032H151.418L153.212 44.658L154.993 42.032H156.28L153.875 45.438L156.41 49H155.11L153.212 46.218L151.288 49H150.001L152.523 45.438ZM160.391 41.915C161.241 41.915 161.869 42.1013 162.276 42.474C162.684 42.8467 162.887 43.4403 162.887 44.255V49H162.055L161.834 48.012H161.782C161.479 48.3933 161.158 48.675 160.82 48.857C160.491 49.039 160.032 49.13 159.442 49.13C158.81 49.13 158.285 48.9653 157.869 48.636C157.453 48.298 157.245 47.7737 157.245 47.063C157.245 46.3697 157.518 45.8367 158.064 45.464C158.61 45.0827 159.451 44.8747 160.586 44.84L161.769 44.801V44.385C161.769 43.8043 161.644 43.4013 161.392 43.176C161.141 42.9507 160.786 42.838 160.326 42.838C159.962 42.838 159.616 42.8943 159.286 43.007C158.957 43.111 158.649 43.2323 158.363 43.371L158.012 42.513C158.316 42.3483 158.675 42.2097 159.091 42.097C159.507 41.9757 159.941 41.915 160.391 41.915ZM160.729 45.633C159.863 45.6677 159.26 45.8063 158.922 46.049C158.593 46.2917 158.428 46.634 158.428 47.076C158.428 47.466 158.545 47.752 158.779 47.934C159.022 48.116 159.33 48.207 159.702 48.207C160.292 48.207 160.781 48.0467 161.171 47.726C161.561 47.3967 161.756 46.894 161.756 46.218V45.594L160.729 45.633Z" fill="black"/>
<rect width="170" height="30" fill="#FFAA06"/>
<path d="M56.206 13.916C56.626 13.9067 57.0273 13.9533 57.41 14.056C57.802 14.1587 58.1613 14.322 58.488 14.546C58.4507 14.0793 58.432 13.5893 58.432 13.076V11.2H60.504V21H58.866L58.684 19.922C58.404 20.2767 58.0447 20.5753 57.606 20.818C57.1767 21.0513 56.6587 21.168 56.052 21.168C55.1653 21.168 54.5307 20.8553 54.148 20.23C53.7747 19.5953 53.588 18.6807 53.588 17.486C53.588 16.5713 53.686 15.8527 53.882 15.33C54.078 14.8073 54.3673 14.4387 54.75 14.224C55.142 14.0093 55.6273 13.9067 56.206 13.916ZM55.716 17.472C55.716 18.0227 55.7533 18.4427 55.828 18.732C55.912 19.0213 56.038 19.2173 56.206 19.32C56.374 19.4227 56.598 19.474 56.878 19.474C57.1953 19.474 57.4613 19.4273 57.676 19.334C57.9 19.2407 58.152 19.1007 58.432 18.914V15.666C58.18 15.5913 57.9373 15.526 57.704 15.47C57.48 15.414 57.2233 15.386 56.934 15.386C56.6447 15.386 56.4067 15.4373 56.22 15.54C56.0427 15.6427 55.912 15.8433 55.828 16.142C55.7533 16.4407 55.716 16.884 55.716 17.472ZM63.8038 14.084L63.9998 15.134C64.9518 14.3127 65.8898 13.902 66.8138 13.902H67.1778L66.9818 15.806H66.4078C66.1092 15.806 65.7918 15.848 65.4558 15.932C65.1292 16.016 64.7278 16.142 64.2518 16.31V21H62.1938V14.084H63.8038ZM69.6808 11.032C70.0914 11.032 70.2968 11.2373 70.2968 11.648V12.404C70.2968 12.8147 70.0914 13.02 69.6808 13.02H68.7848C68.3741 13.02 68.1688 12.8147 68.1688 12.404V11.648C68.1688 11.2373 68.3741 11.032 68.7848 11.032H69.6808ZM70.2548 14.084V21H68.2108V14.084H70.2548ZM78.9819 14.084L76.6999 20.51C76.5879 20.8367 76.3639 21 76.0279 21H74.2359C73.8906 21 73.6666 20.8367 73.5639 20.51L71.2819 14.084H73.4659L74.7399 18.41C74.7959 18.6153 74.8473 18.8253 74.8939 19.04C74.9406 19.2547 74.9873 19.46 75.0339 19.656H75.2159C75.2626 19.4507 75.3139 19.2453 75.3699 19.04C75.4259 18.8253 75.4819 18.6153 75.5379 18.41L76.7979 14.084H78.9819ZM83.0789 13.902C84.2456 13.902 85.0809 14.1027 85.5849 14.504C86.0982 14.9053 86.3549 15.4933 86.3549 16.268C86.3642 16.8933 86.2056 17.3647 85.8789 17.682C85.5522 17.9993 84.9876 18.158 84.1849 18.158H81.7209C81.7769 18.6993 81.9309 19.0633 82.1829 19.25C82.4442 19.4367 82.8456 19.53 83.3869 19.53C83.7042 19.53 84.0962 19.5207 84.5629 19.502C85.0389 19.474 85.5149 19.432 85.9909 19.376L86.1869 20.65C85.7762 20.846 85.2909 20.9813 84.7309 21.056C84.1802 21.1307 83.6529 21.168 83.1489 21.168C81.8236 21.168 80.8856 20.8787 80.3349 20.3C79.7936 19.7213 79.5229 18.8067 79.5229 17.556C79.5229 16.6507 79.6396 15.932 79.8729 15.4C80.1156 14.868 80.4982 14.4853 81.0209 14.252C81.5436 14.0187 82.2296 13.902 83.0789 13.902ZM83.1489 15.358C82.7942 15.358 82.5096 15.4 82.2949 15.484C82.0896 15.568 81.9402 15.7313 81.8469 15.974C81.7536 16.2073 81.6976 16.548 81.6789 16.996H83.6249C83.9329 16.996 84.1289 16.9307 84.2129 16.8C84.3062 16.6693 84.3529 16.478 84.3529 16.226C84.3529 15.8993 84.2596 15.6753 84.0729 15.554C83.8862 15.4233 83.5782 15.358 83.1489 15.358ZM94.3972 14.084L92.5912 16.492C92.5072 16.632 92.3999 16.7627 92.2692 16.884C92.1386 17.0053 92.0312 17.0893 91.9472 17.136V17.178C92.0312 17.234 92.1386 17.3367 92.2692 17.486C92.3999 17.626 92.5072 17.7707 92.5912 17.92L94.6352 21H92.3252L90.3652 17.78H89.6932C89.7212 17.9667 89.7399 18.1487 89.7492 18.326C89.7679 18.5033 89.7772 18.6713 89.7772 18.83V21H87.7192V11.2H89.7772V15.246C89.7866 15.6847 89.7586 16.1093 89.6932 16.52H90.3652L92.0872 14.084H94.3972ZM97.6115 11.2L97.5975 18.788C97.5975 19.2547 97.8729 19.488 98.4235 19.488H98.9835L99.2215 20.888C99.1002 20.9533 98.9369 21.0047 98.7315 21.042C98.5262 21.0793 98.3162 21.1073 98.1015 21.126C97.8869 21.1447 97.7095 21.154 97.5695 21.154C96.9442 21.154 96.4495 20.9953 96.0855 20.678C95.7309 20.3513 95.5535 19.894 95.5535 19.306V11.2H97.6115ZM102.136 14.084V18.634C102.136 18.9233 102.196 19.1287 102.318 19.25C102.439 19.3713 102.644 19.432 102.934 19.432C103.186 19.432 103.442 19.39 103.704 19.306C103.965 19.222 104.278 19.082 104.642 18.886V14.084H106.714V21H105.09L104.908 19.992C104.422 20.3933 103.946 20.692 103.48 20.888C103.013 21.084 102.532 21.182 102.038 21.182C100.731 21.182 100.078 20.5427 100.078 19.264V14.084H102.136ZM112.758 13.902C113.673 13.902 114.326 14.182 114.718 14.742C115.12 15.2927 115.32 16.2073 115.32 17.486C115.32 18.018 115.269 18.508 115.166 18.956C115.073 19.404 114.9 19.796 114.648 20.132C114.406 20.4587 114.06 20.7153 113.612 20.902C113.174 21.0793 112.609 21.168 111.918 21.168C111.592 21.168 111.204 21.1493 110.756 21.112C110.318 21.0747 109.884 21.0187 109.454 20.944C109.034 20.86 108.68 20.7527 108.39 20.622V11.2H110.462V13.44C110.472 13.7293 110.462 14.0093 110.434 14.28C110.406 14.5413 110.36 14.798 110.294 15.05C110.63 14.714 111.008 14.4387 111.428 14.224C111.858 14.0093 112.301 13.902 112.758 13.902ZM111.932 15.526C111.662 15.526 111.41 15.582 111.176 15.694C110.952 15.7967 110.71 15.932 110.448 16.1V19.544C110.682 19.5907 110.929 19.628 111.19 19.656C111.452 19.6747 111.68 19.6793 111.876 19.67C112.194 19.6607 112.446 19.5953 112.632 19.474C112.828 19.3433 112.968 19.124 113.052 18.816C113.136 18.4987 113.183 18.06 113.192 17.5C113.183 16.9867 113.141 16.59 113.066 16.31C113.001 16.0207 112.88 15.82 112.702 15.708C112.525 15.5867 112.268 15.526 111.932 15.526Z" fill="black"/>
</svg>
