<svg width="52" height="71" viewBox="0 0 52 71" fill="none" xmlns="http://www.w3.org/2000/svg">
<path d="M8.236 56.352H9.964L5.842 60.996L10.306 66H8.47L4.114 61.104V66H2.53V56.352H4.114V61.032L8.236 56.352ZM15.7113 56.19C16.8873 56.19 17.7573 56.448 18.3213 56.964C18.8853 57.48 19.1673 58.302 19.1673 59.43V66H18.0153L17.7093 64.632H17.6373C17.2173 65.16 16.7733 65.55 16.3053 65.802C15.8493 66.054 15.2133 66.18 14.3973 66.18C13.5213 66.18 12.7953 65.952 12.2193 65.496C11.6433 65.028 11.3553 64.302 11.3553 63.318C11.3553 62.358 11.7333 61.62 12.4893 61.104C13.2453 60.576 14.4093 60.288 15.9813 60.24L17.6193 60.186V59.61C17.6193 58.806 17.4453 58.248 17.0973 57.936C16.7493 57.624 16.2573 57.468 15.6213 57.468C15.1173 57.468 14.6373 57.546 14.1813 57.702C13.7253 57.846 13.2993 58.014 12.9033 58.206L12.4173 57.018C12.8373 56.79 13.3353 56.598 13.9113 56.442C14.4873 56.274 15.0873 56.19 15.7113 56.19ZM16.1793 61.338C14.9793 61.386 14.1453 61.578 13.6773 61.914C13.2213 62.25 12.9933 62.724 12.9933 63.336C12.9933 63.876 13.1553 64.272 13.4793 64.524C13.8153 64.776 14.2413 64.902 14.7573 64.902C15.5733 64.902 16.2513 64.68 16.7913 64.236C17.3313 63.78 17.6013 63.084 17.6013 62.148V61.284L16.1793 61.338ZM26.7372 56.172C27.9252 56.172 28.8792 56.586 29.5992 57.414C30.3312 58.242 30.6972 59.49 30.6972 61.158C30.6972 62.802 30.3312 64.05 29.5992 64.902C28.8792 65.754 27.9192 66.18 26.7192 66.18C25.9752 66.18 25.3572 66.042 24.8652 65.766C24.3852 65.478 24.0072 65.148 23.7312 64.776H23.6232C23.6472 64.98 23.6712 65.238 23.6952 65.55C23.7192 65.862 23.7312 66.132 23.7312 66.36V70.32H22.1472V56.352H23.4432L23.6592 57.666H23.7312C24.0192 57.246 24.3972 56.892 24.8652 56.604C25.3332 56.316 25.9572 56.172 26.7372 56.172ZM26.4492 57.504C25.4652 57.504 24.7692 57.78 24.3612 58.332C23.9652 58.884 23.7552 59.724 23.7312 60.852V61.158C23.7312 62.346 23.9232 63.264 24.3072 63.912C24.7032 64.548 25.4292 64.866 26.4852 64.866C27.0732 64.866 27.5532 64.704 27.9252 64.38C28.3092 64.056 28.5912 63.618 28.7712 63.066C28.9632 62.502 29.0592 61.86 29.0592 61.14C29.0592 60.036 28.8432 59.154 28.4112 58.494C27.9912 57.834 27.3372 57.504 26.4492 57.504ZM39.7056 57.684H36.5556V66H34.9896V57.684H31.8756V56.352H39.7056V57.684ZM45.2602 56.19C46.4362 56.19 47.3062 56.448 47.8702 56.964C48.4342 57.48 48.7162 58.302 48.7162 59.43V66H47.5642L47.2582 64.632H47.1862C46.7662 65.16 46.3222 65.55 45.8542 65.802C45.3982 66.054 44.7622 66.18 43.9462 66.18C43.0702 66.18 42.3442 65.952 41.7682 65.496C41.1922 65.028 40.9042 64.302 40.9042 63.318C40.9042 62.358 41.2822 61.62 42.0382 61.104C42.7942 60.576 43.9582 60.288 45.5302 60.24L47.1682 60.186V59.61C47.1682 58.806 46.9942 58.248 46.6462 57.936C46.2982 57.624 45.8062 57.468 45.1702 57.468C44.6662 57.468 44.1862 57.546 43.7302 57.702C43.2742 57.846 42.8482 58.014 42.4522 58.206L41.9662 57.018C42.3862 56.79 42.8842 56.598 43.4602 56.442C44.0362 56.274 44.6362 56.19 45.2602 56.19ZM45.7282 61.338C44.5282 61.386 43.6942 61.578 43.2262 61.914C42.7702 62.25 42.5422 62.724 42.5422 63.336C42.5422 63.876 42.7042 64.272 43.0282 64.524C43.3642 64.776 43.7902 64.902 44.3062 64.902C45.1222 64.902 45.8002 64.68 46.3402 64.236C46.8802 63.78 47.1502 63.084 47.1502 62.148V61.284L45.7282 61.338Z" fill="#383838"/>
<path d="M48.1145 10.6199L36.1112 14.361V20.2255H33.2223V14.8666L20.2223 8.2077V13.0033H17.3334V7.61548L3.3656 13.3933C3.22712 13.4496 3.10818 13.5454 3.02348 13.6686C2.93877 13.7918 2.892 13.9371 2.88893 14.0866V43.9866C2.88812 44.1138 2.91905 44.2393 2.97891 44.3516C3.03878 44.4639 3.1257 44.5595 3.23181 44.6298C3.33792 44.7 3.45987 44.7427 3.58664 44.754C3.7134 44.7653 3.84097 44.7448 3.95782 44.6944L17.3334 39.1766V33.2255H20.2223V39.7688L33.2223 46.4277V40.4477H36.1112V45.9221L48.5767 42.0221C48.7329 41.9727 48.8691 41.8745 48.9653 41.7418C49.0615 41.6092 49.1126 41.4493 49.1112 41.2855V11.3566C49.1122 11.2357 49.0847 11.1162 49.0307 11.008C48.9767 10.8999 48.8979 10.806 48.8007 10.7341C48.7034 10.6622 48.5906 10.6144 48.4713 10.5946C48.352 10.5747 48.2298 10.5834 48.1145 10.6199ZM20.2223 30.3366H17.3334V24.5588H20.2223V30.3366ZM20.2223 21.6699H17.3334V15.8921H20.2223V21.6699ZM36.1112 37.5588H33.2223V31.781H36.1112V37.5588ZM36.1112 28.8921H33.2223V23.1144H36.1112V28.8921Z" fill="#FFAA06"/>
</svg>
